<?xml version="1.0" encoding="utf-8"?>
<!-- Generator: Adobe Illustrator 20.1.0, SVG Export Plug-In . SVG Version: 6.00 Build 0)  -->
<svg version="1.1" id="Layer_1" xmlns="http://www.w3.org/2000/svg" xmlns:xlink="http://www.w3.org/1999/xlink" x="0px" y="0px"
	 viewBox="0 0 504.6 86.2" style="enable-background:new 0 0 504.6 86.2;" xml:space="preserve">
<style type="text/css">
	.st0{fill:#003DA5;}
	.st1{fill:#DA291C;}
</style>
<g>
	<g>
		<path class="st0" d="M99.6,0.9h14.5c7.5,0,13.8,3.2,13.8,11.5c0,5-1.9,7.1-6.4,8.6v0.3c0.6,0.5,1.4,1,2,2l7.2,10.7h-13.9
			l-5.3-10.6h-0.2V34H99.6V0.9 M111.3,15.6h0.8c2,0,3.9-0.3,3.9-2.8s-1.8-2.9-3.9-2.9h-0.9L111.3,15.6L111.3,15.6z"/>
		<polyline class="st0" points="131.9,0.9 154.1,0.9 154.1,10 144,10 144,13.1 153.3,13.1 153.3,21.7 144,21.7 144,25 154.5,25 
			154.5,34 131.9,34 131.9,0.9 		"/>
		<path class="st0" d="M168.5,34h-12.7l11.5-33.1h13.3L192.4,34h-12.7l-1.1-4.1h-9.1L168.5,34 M176.5,22l-1.4-5.8
			c-0.4-1.4-0.6-2.9-0.8-4.3h-0.4L171.6,22H176.5z"/>
		<polyline class="st0" points="194.2,0.9 206.2,0.9 206.2,23.4 216.3,23.4 216.3,34 194.2,34 194.2,0.9 		"/>
		<path class="st0" d="M257.9,14.4c-1.9-1.8-4.3-3.3-7.1-3.3c-3.6,0-6.5,2.9-6.5,6.4c0,3.6,3.1,6.4,6.7,6.4c2.8,0,5-1.2,6.9-3.1
			l-0.4,12.4c-1.9,0.9-6.4,1.3-8.6,1.3c-9.4,0-16.8-7.3-16.8-16.8c0-9.6,7.6-17.4,17.3-17.4c2.7,0,5.5,0.5,8.1,1.4L257.9,14.4"/>
		<path class="st0" d="M271.5,34h-12.7l11.5-33.1h13.3L295.4,34h-12.7l-1.1-4.1h-9.1L271.5,34 M279.5,22l-1.4-5.8
			c-0.4-1.4-0.6-2.9-0.8-4.3h-0.4L274.7,22H279.5z"/>
		<path class="st0" d="M297.1,0.9h11.5l10.8,18.3h0.3c-0.5-2.8-1-5.6-1-8.4V0.9h11.5V34h-11.5l-10.6-17.4h-0.3
			c0.4,2.3,0.7,4.4,0.7,6.6V34H297V0.9"/>
		<path class="st0" d="M344.6,34h-12.7l11.5-33.1h13.3L368.4,34h-12.7l-1.1-4.1h-9.1L344.6,34 M352.5,22l-1.4-5.8
			c-0.4-1.4-0.6-2.9-0.8-4.3h-0.4L347.7,22H352.5z"/>
		<path class="st0" d="M370.4,0.9h12.2c11.1,0,19.6,4.9,19.6,17c0,9.8-6.9,16-16.6,16h-15.2V0.9 M382.4,24.1h0.7
			c4,0,7.1-1.8,7.1-6.2c0-4.6-2.7-6.6-7.1-6.6h-0.7V24.1z"/>
		<rect x="405.6" y="0.9" class="st0" width="12" height="33.1"/>
		<path class="st0" d="M432.3,34h-12.7l11.5-33.1h13.3L456.1,34h-12.7l-1.1-4.1h-9.1L432.3,34 M440.2,22l-1.4-5.8
			c-0.4-1.4-0.6-2.9-0.8-4.3h-0.4L435.4,22H440.2z"/>
		<path class="st0" d="M457.8,0.9h11.5l10.8,18.3h0.4c-0.5-2.8-1-5.6-1-8.4V0.9H491V34h-11.5l-10.6-17.4h-0.3
			c0.4,2.3,0.7,4.4,0.7,6.6V34h-11.5L457.8,0.9"/>
		<path class="st1" d="M102.8,69.4l0.8,0.6c2.8,2.2,6.2,3.9,9.8,3.9c1.5,0,4-0.6,4-2.6c0-1.9-2.1-2.1-3.5-2.4l-3.1-0.6
			c-6.1-1.1-11.2-4.7-11.2-11.4c0-10.2,9.3-15.9,18.7-15.9c4.9,0,9.4,1.2,13.6,3.8l-4.2,11c-2.7-1.8-5.7-3.3-9.1-3.3
			c-1.4,0-3.4,0.5-3.4,2.3c0,1.6,1.9,1.8,3.1,2.1l3.5,0.8c6.6,1.5,11.4,5,11.4,12.3c0,10.3-9.4,15.4-18.7,15.4
			c-5.4,0-11.7-1.5-16.6-3.9L102.8,69.4"/>
		<path class="st1" d="M176.2,41.8v25.5c0,12.6-7.9,18.3-19.9,18.3s-19.9-5.7-19.9-18.3V41.8H152v24c0,3.4,0.1,6.3,4.3,6.3
			s4.3-3,4.3-6.3v-24L176.2,41.8"/>
		<path class="st1" d="M180.2,41.8H200c10,0,17.5,5.1,17.5,15.8c0,8.8-5.5,14.3-14.2,14.3h-8v13h-15.1V41.8 M195.3,61.1h1.5
			c2.7,0,5.7-0.5,5.7-3.9s-3.2-3.5-5.8-3.5h-1.5v7.4H195.3z"/>
		<polyline class="st1" points="221.1,41.8 250,41.8 250,53.6 236.8,53.6 236.8,57.7 248.9,57.7 248.9,68.9 236.8,68.9 236.8,73.1 
			250.5,73.1 250.5,84.9 221.1,84.9 221.1,41.8 		"/>
		<path class="st1" d="M254.5,41.8h18.9c9.7,0,17.9,4.1,17.9,15c0,6.5-2.5,9.2-8.3,11.2v0.3c0.8,0.6,1.8,1.3,2.6,2.6l9.4,14h-18
			L270.1,71h-0.3v13.8h-15.3L254.5,41.8 M269.8,60.9h1.1c2.6,0,5.1-0.4,5.1-3.6c0-3.3-2.3-3.7-5-3.7h-1.2V60.9z"/>
		<path class="st1" d="M300.8,69.4l0.8,0.6c2.8,2.2,6.2,3.9,9.8,3.9c1.5,0,4-0.6,4-2.6c0-1.9-2.1-2.1-3.5-2.4l-3.1-0.6
			c-6.1-1.1-11.2-4.7-11.2-11.4c0-10.2,9.3-15.9,18.7-15.9c4.9,0,9.4,1.2,13.6,3.8l-4.2,11c-2.7-1.8-5.7-3.3-9.1-3.3
			c-1.4,0-3.4,0.5-3.4,2.3c0,1.6,1.9,1.8,3.1,2.1l3.5,0.8c6.6,1.5,11.4,5,11.4,12.3c0,10.3-9.4,15.4-18.7,15.4
			c-5.4,0-11.7-1.5-16.5-3.9L300.8,69.4"/>
		<polyline class="st1" points="333.1,41.8 365.9,41.8 365.9,55.8 357.3,55.4 357.3,84.9 341.7,84.9 341.7,55.4 333.1,55.8 
			333.1,41.8 		"/>
		<path class="st1" d="M416.2,63.5c0,13.8-10.7,22.1-23.8,22.1c-13.1,0-23.8-8.3-23.8-22.1c0-13.5,10.7-22.3,23.8-22.3
			C405.5,41.1,416.2,49.9,416.2,63.5 M384.4,63.7c0,4.9,3.3,8.3,8,8.3s8-3.4,8-8.3c0-4.6-3.1-8.4-8-8.4
			C387.4,55.3,384.4,59.1,384.4,63.7z"/>
		<path class="st1" d="M419.6,41.8h18.9c9.7,0,17.9,4.1,17.9,15c0,6.5-2.5,9.2-8.3,11.2v0.3c0.8,0.6,1.8,1.3,2.6,2.6l9.4,14h-18
			L435.2,71h-0.3v13.8h-15.3L419.6,41.8 M434.9,60.9h1.1c2.6,0,5.1-0.4,5.1-3.6c0-3.3-2.3-3.7-5-3.7h-1.2V60.9z"/>
		<polyline class="st1" points="461.6,41.8 490.5,41.8 490.5,53.6 477.3,53.6 477.3,57.7 489.4,57.7 489.4,68.9 477.3,68.9 
			477.3,73.1 491,73.1 491,84.9 461.6,84.9 461.6,41.8 		"/>
		<path class="st1" d="M102.8,69.4l0.8,0.6c2.8,2.2,6.2,3.9,9.8,3.9c1.5,0,4-0.6,4-2.6c0-1.9-2.1-2.1-3.5-2.4l-3.1-0.6
			c-6.1-1.1-11.2-4.7-11.2-11.4c0-10.2,9.3-15.9,18.7-15.9c4.9,0,9.4,1.2,13.6,3.8l-4.2,11c-2.7-1.8-5.7-3.3-9.1-3.3
			c-1.4,0-3.4,0.5-3.4,2.3c0,1.6,1.9,1.8,3.1,2.1l3.5,0.8c6.6,1.5,11.4,5,11.4,12.3c0,10.3-9.4,15.4-18.7,15.4
			c-5.4,0-11.7-1.5-16.6-3.9L102.8,69.4"/>
		<path class="st1" d="M176.2,41.8v25.5c0,12.6-7.9,18.3-19.9,18.3s-19.9-5.7-19.9-18.3V41.8H152v24c0,3.4,0.1,6.3,4.3,6.3
			s4.3-3,4.3-6.3v-24L176.2,41.8"/>
		<path class="st1" d="M180.2,41.8H200c10,0,17.5,5.1,17.5,15.8c0,8.8-5.5,14.3-14.2,14.3h-8v13h-15.1V41.8 M195.3,61.1h1.5
			c2.7,0,5.7-0.5,5.7-3.9s-3.2-3.5-5.8-3.5h-1.5v7.4H195.3z"/>
		<polyline class="st1" points="220.9,41.8 249.9,41.8 249.9,53.6 236.7,53.6 236.7,57.7 248.7,57.7 248.7,68.9 236.7,68.9 
			236.7,73.1 250.3,73.1 250.3,84.9 220.9,84.9 220.9,41.8 		"/>
		<path class="st1" d="M254.3,41.8h18.9c9.7,0,17.9,4.1,17.9,15c0,6.5-2.5,9.2-8.3,11.2v0.3c0.8,0.6,1.8,1.3,2.6,2.6l9.4,14h-18
			L269.9,71h-0.3v13.8h-15.3V41.8 M269.6,60.9h1.1c2.6,0,5.1-0.4,5.1-3.6c0-3.3-2.3-3.7-5-3.7h-1.2V60.9z"/>
		<path class="st1" d="M300.7,69.4l0.8,0.6c2.8,2.2,6.2,3.9,9.8,3.9c1.5,0,4-0.6,4-2.6c0-1.9-2.1-2.1-3.5-2.4l-3.1-0.6
			c-6.1-1.1-11.2-4.7-11.2-11.4c0-10.2,9.3-15.9,18.7-15.9c4.9,0,9.4,1.2,13.6,3.8l-4.2,11c-2.7-1.8-5.7-3.3-9.1-3.3
			c-1.4,0-3.4,0.5-3.4,2.3c0,1.6,1.9,1.8,3.1,2.1l3.5,0.8c6.6,1.5,11.4,5,11.4,12.3c0,10.3-9.4,15.4-18.7,15.4
			c-5.4,0-11.7-1.5-16.6-3.9L300.7,69.4"/>
		<path class="st1" d="M416,63.5c0,13.8-10.7,22.1-23.8,22.1c-13.1,0-23.8-8.3-23.8-22.1c0-13.5,10.7-22.3,23.8-22.3
			C405.3,41.1,416,49.9,416,63.5 M384.2,63.7c0,4.9,3.3,8.3,8,8.3s8-3.4,8-8.3c0-4.6-3.1-8.4-8-8.4
			C387.3,55.3,384.2,59.1,384.2,63.7z"/>
		<path class="st1" d="M419.4,41.8h18.9c9.7,0,17.9,4.1,17.9,15c0,6.5-2.5,9.2-8.3,11.2v0.3c0.8,0.6,1.8,1.3,2.6,2.6l9.4,14h-18
			L435,71h-0.3v13.8h-15.3L419.4,41.8 M434.7,60.9h1.1c2.6,0,5.1-0.4,5.1-3.6c0-3.3-2.3-3.7-5-3.7h-1.2V60.9z"/>
		<polyline class="st1" points="461.6,41.8 490.5,41.8 490.5,53.6 477.3,53.6 477.3,57.7 489.4,57.7 489.4,68.9 477.3,68.9 
			477.3,73.1 491,73.1 491,84.9 461.6,84.9 461.6,41.8 		"/>
		<path class="st0" d="M83.9,0.9H0v42c0,23.2,18.8,42,42,42h42L83.9,0.9L83.9,0.9"/>
		<polyline class="st1" points="59,33.4 66,32.5 64.3,40.9 67,42.9 55.7,53.3 56.2,57.9 45.7,57 45.7,59.8 45.9,69.9 43.3,70 
			40.7,70 41,59.7 41,57 30.4,57.9 31.2,53.3 19.6,43.2 22,40.8 20.2,31.7 27.7,33.3 29.3,30 36.1,36.5 33.8,22.2 38.8,23.7 
			43.4,15.5 47.9,23.8 52.6,22.4 50.4,35.8 57.3,30 59,33.4 		"/>
	</g>
	<g>
		<path class="st0" d="M493,4.5L493,4.5c0-1.9,1.5-3.5,3.5-3.5s3.5,1.6,3.5,3.5l0,0c0,1.9-1.5,3.5-3.5,3.5S493,6.4,493,4.5z
			 M499.6,4.4L499.6,4.4c0-1.7-1.3-3.1-3.1-3.1c-1.8,0-3.1,1.4-3.1,3.1l0,0c0,1.7,1.3,3.1,3.1,3.1C498.3,7.6,499.6,6.1,499.6,4.4z
			 M495,2.5h1.7c0.6,0,1,0.2,1.3,0.4c0.2,0.2,0.3,0.5,0.3,0.8l0,0c0,0.6-0.3,0.9-0.8,1.1l0.9,1.3h-1.2L496.4,5l0,0H496v1.1h-1V2.5z
			 M496.7,4.3c0.4,0,0.6-0.2,0.6-0.4l0,0c0-0.3-0.2-0.4-0.6-0.4H496v0.9L496.7,4.3L496.7,4.3z"/>
	</g>
</g>
</svg>
